<svg width="442" height="442" viewBox="0 0 442 442" fill="none" xmlns="http://www.w3.org/2000/svg">
<rect width="442" height="442" rx="58" fill="#1E40AF"/>
<path d="M261.583 331.564L181.791 331.936C175.617 331.965 171.738 325.285 174.825 319.937L221.256 239.501L174.076 159.502C170.939 154.183 174.755 147.467 180.93 147.438L260.722 147.065C266.896 147.036 270.774 153.717 267.688 159.064L221.256 239.501L268.437 319.5C271.573 324.819 267.758 331.535 261.583 331.564Z" fill="white" stroke="white" stroke-width="17"/>
<path d="M214.072 31C217.151 25.6667 224.849 25.6667 227.928 31L272.962 109C276.041 114.333 272.192 121 266.033 121H175.967C169.808 121 165.959 114.333 169.038 109L214.072 31Z" fill="white"/>
<path d="M167 362C167 359.791 168.791 358 171 358H271C273.209 358 275 359.791 275 362V393C275 401.837 267.837 409 259 409H183C174.163 409 167 401.837 167 393V362Z" fill="white"/>
</svg>
